<svg xmlns="http://www.w3.org/2000/svg" xmlns:xlink="http://www.w3.org/1999/xlink" aria-hidden="true" role="img" class="iconify iconify--logos" width="31.88" height="32" preserveAspectRatio="xMidYMid meet" viewBox="0 0 256 257"><defs><linearGradient id="IconifyId1813088fe1fbc01fb466" x1="-.828%" x2="57.636%" y1="7.652%" y2="78.411%"><stop offset="0%" stop-color="#FF00FF"></stop><stop offset="100%" stop-color="#FF8C00"></stop></linearGradient></defs><path fill="url(#IconifyId1813088fe1fbc01fb466)" d="M255.153 37.938L134.897 252.976c-2.883 5.084-10.067 5.084-12.95 0L.846 37.938c-2.883-5.084-.7-11.080 4.915-13.055l131.021-44.979c5.806-1.872 12.022-1.872 17.827 0l131.021 44.979c5.606 1.972 7.823 7.981 4.915 13.055Z"></path><path fill="#FFF" d="M185.432.063L96.44 17.557l54.802 54.802L231.23 56.801zm-54.466 56.666L42.746 4.935 0 50.88l73.176 73.176zm54.466 56.667l54.802 54.801L255 lost 256.019V116.33z"></path></svg>